<?xml version="1.0" encoding="UTF-8"?>
<svg id="Calque_2" data-name="Calque 2" xmlns="http://www.w3.org/2000/svg" viewBox="0 0 495.74 874.72">
  <defs>
    <style>
      .cls-1 {
        fill: #ff5833;
      }

      .cls-1, .cls-2, .cls-3, .cls-4 {
        stroke-width: 0px;
      }

      .cls-2 {
        fill: #fe5833;
      }

      .cls-3 {
        fill: #030128;
      }

      .cls-4 {
        fill: #faf4dc;
      }
    </style>
  </defs>
  <g id="Calque_3" data-name="Calque 3">
    <g>
      <path class="cls-3" d="M157.68,260.66c1.04-48.28,1.39-82.32,1.74-132.68,0-24.31,1.74-53.49,2.43-80.23h-1.04c-4.17,24.66-8.68,51.06-13.2,67.73l-37.51,145.18h-20.49L52.1,113.4c-4.52-18.75-9.38-43.76-13.2-66.34h-1.04c.69,28.13,2.08,54.53,2.43,80.58,0,51.06.69,85.09,1.39,133.02H0c.69-37.51.69-75.37.69-130.59S.69,34.21.35.17h61.48c6.6,23.97,19.45,76.76,33.34,126.08,2.78,11.81,5.9,28.48,8.68,44.11h1.39c2.78-15.98,6.25-31.95,9.38-43.76C127.81,77.28,141.36,24.14,147.96.17h56.61c-.69,34.04-.69,72.94-.69,129.9s.35,93.08,1.04,130.59h-47.24Z"/>
      <path class="cls-3" d="M392.09,0c-15.63,40.98-48.97,143.1-60.09,180.61,0,40.29.35,68.42.69,80.23-6.6-.69-16.32-.69-23.97-.69s-17.71,0-24.66.69c.69-11.81,1.04-39.59,1.04-80.23-11.11-38.9-44.8-145.18-60.43-180.61h55.22c3.47,15.63,13.2,62.17,21.19,97.95,3.13,12.85,5.91,26.4,7.99,36.81h2.78c1.74-10.07,4.52-23.27,7.99-35.77,8.68-36.82,19.8-84.05,22.58-98.99h49.67Z"/>
    </g>
    <g>
      <path class="cls-3" d="M49.78,487.51c0,29.87,7.29,38.55,31.26,38.55,22.58,0,29.87-8.68,29.87-26.74,0-19.8-8.34-36.82-38.9-48.63C19.91,430.2,3.59,404.85,3.59,363.86s25.01-65.64,75.02-65.64c54.53,0,75.37,22.92,75.37,68.77,0,6.6-.35,13.54-.69,21.53-5.21-.35-12.85-.35-21.19-.35s-16.67,0-22.23.35c.35-6.6.35-13.2.35-19.8,0-20.49-6.95-29.87-30.91-29.87-20.84,0-28.48,9.03-28.48,25.35,0,17.71,5.21,32.65,38.2,46.19,44.8,17.71,66.69,43.41,66.69,86.13s-22.58,69.81-74.67,69.81c-57.66,0-78.84-27.09-78.84-70.51,0-9.38,0-15.28.69-21.53,5.21.69,13.2,1.04,21.88,1.04,9.72,0,18.41-.35,25.01-.69v12.85Z"/>
      <path class="cls-3" d="M385.71,302.04c-.35,5.28-.35,13.73-.35,21.47,0,7.04,0,16.19.35,22.17-15.63-.35-96.71-.35-110.6-.35,0,84.82.35,200.26,1.39,221.02-6.6-.7-17.37-.7-24.66-.7s-17.37,0-24.31.7c1.04-20.41,1.04-136.2,1.04-221.02-13.89,0-40.9,0-56.53.35.35-5.98.35-15.13.35-22.17,0-7.74,0-15.84-.35-21.47h213.68Z"/>
      <path class="cls-3" d="M495.74,302.04c-.69,22.23-1.04,44.8-1.04,77.8,0,26.05.35,67.03.35,101.42,0,51.4-22.58,85.09-79.89,85.09s-75.59-33.9-80.23-85.09c-.28-3.04.02.26,0,0-3-32.86,0-71.62-.69-93.85h49.67c-1.39,41.68-1.39,45.92-1.39,93.15,0,29.87,10.07,42.37,34.04,42.37,22.23,0,31.26-12.5,31.26-42.37,0-47.23-.69-137.19-1.39-178.52h49.32Z"/>
    </g>
    <g>
      <g>
        <path class="cls-4" d="M229.62,623.92l-4.36-9.84-8.02-18.06c-.28-.63-1.26-.63-1.54,0l-8.04,18.06-4.38,9.84-15.5,39.1v167.1s0,40.85,0,40.85c0,2.08,1.86,3.76,4.15,3.76h49.12c2.29,0,4.15-1.68,4.15-3.76v-207.95l-15.58-39.1Z"/>
        <polygon class="cls-1" points="216.4 606.94 209 625.32 223.79 625.32 216.4 606.94"/>
        <polygon class="cls-2" points="227.46 634.46 205.31 634.46 194.43 661.5 238.38 661.62 227.46 634.46"/>
        <rect class="cls-2" x="192.28" y="825.99" width="48.28" height="41.44"/>
        <rect class="cls-2" x="192.28" y="670.78" width="19.09" height="121.16"/>
        <rect class="cls-2" x="192.28" y="801.08" width="48.28" height="15.78"/>
        <rect class="cls-2" x="221.48" y="670.78" width="19.09" height="121.16"/>
      </g>
      <path class="cls-3" d="M71.86,606.94c63.21,0,92.04,22.92,92.04,127.81s-26.05,132.68-93.08,132.68H2.4c1.04-35.77,1.04-74.67,1.04-129.9s0-98.99-1.04-130.59h69.46ZM116.32,736c0-76.88-13.2-85.92-43.76-85.92-7.64,0-14.59.35-21.19.7-.69,25.05-.69,58.44-.69,88.01,0,39.66,0,66.1.35,85.23,6.95.7,12.85.7,20.49.7,32.3,0,44.8-10.44,44.8-88.71Z"/>
      <path class="cls-3" d="M279.56,867.43c.35-6.95.35-12.85.35-18.75,0-7.64,0-18.06-.35-22.23,10.07-15.63,44.46-81.62,69.81-128.51,9.03-17.37,18.41-35.43,26.05-48.28l-.35-1.04c-10.77.69-21.88.69-34.73.69-34.04,0-46.89.35-59.74.35.35-6.6.69-16.32.69-21.53,0-6.6,0-14.24-.35-21.19h146.57c0,6.95-.35,13.2-.35,19.8,0,5.9,0,16.67.35,21.88-10.07,16.32-38.55,77.1-64.95,124.34-10.77,20.15-18.06,37.16-25.35,50.71v1.04c10.07-.35,20.14-.69,29.17-.35,29.52,0,46.89-.69,61.13-1.39-.35,8.68-.35,19.8-.35,25.35,0,5.9.35,12.16.69,19.1h-148.31Z"/>
    </g>
  </g>
</svg>