<?xml version="1.0" encoding="UTF-8"?>
<svg id="Calque_2" data-name="Calque 2" xmlns="http://www.w3.org/2000/svg" viewBox="0 0 1880.55 375.04">
  <defs>
    <style>
      .cls-1 {
        fill: #faf4db;
      }

      .cls-1, .cls-2, .cls-3, .cls-4 {
        stroke-width: 0px;
      }

      .cls-2 {
        fill: #ff5833;
      }

      .cls-3 {
        fill: #faf4dc;
      }

      .cls-4 {
        fill: #fe5833;
      }
    </style>
  </defs>
  <g id="Calque_2-2" data-name="Calque 2">
    <path class="cls-1" d="M211.84,362.5c1.4-64.86,1.87-110.59,2.33-178.25,0-32.66,2.33-71.86,3.27-107.79h-1.4c-5.6,33.13-11.67,68.59-17.73,90.99l-50.4,195.05h-27.53l-50.39-197.85c-6.07-25.2-12.6-58.79-17.73-89.12h-1.4c.93,37.8,2.8,73.26,3.27,108.26,0,68.59.93,114.32,1.86,178.71H0c.93-50.4.93-101.26.93-175.45S.93,58.26.47,12.54h82.59c8.86,32.2,26.13,103.12,44.8,169.38,3.73,15.87,7.93,38.26,11.67,59.26h1.87c3.73-21.46,8.4-42.93,12.6-58.79,17.73-66.26,35.93-137.65,44.8-169.85h76.06c-.93,45.73-.93,97.99-.93,174.52s.47,125.05,1.4,175.45h-63.49Z"/>
    <path class="cls-1" d="M526.77,12.3c-21,55.06-65.79,192.25-80.73,242.64,0,54.13.47,91.92.93,107.79-8.86-.93-21.93-.93-32.2-.93s-23.8,0-33.13.93c.93-15.87,1.4-53.19,1.4-107.79-14.93-52.26-60.19-195.05-81.19-242.64h74.19c4.67,21,17.73,83.53,28.46,131.59,4.2,17.26,7.93,35.46,10.73,49.46h3.73c2.33-13.53,6.07-31.26,10.73-48.06,11.67-49.46,26.6-112.92,30.33-132.99h66.75Z"/>
    <g>
      <path class="cls-3" d="M1631.68,77.38l-17.45-39.28-5.86-13.21-10.78-24.26c-.37-.84-1.69-.84-2.07,0l-10.8,24.26-5.88,13.21-17.4,39.1-3.42,13.42v279.37c0,2.79,2.5,5.05,5.58,5.05h65.99c3.08,0,5.58-2.26,5.58-5.05V90.62l-3.49-13.24h0Z"/>
      <polygon class="cls-2" points="1596.47 15.28 1586.52 39.98 1606.4 39.98 1596.47 15.28"/>
      <polygon class="cls-4" points="1611.33 52.26 1581.57 52.26 1566.94 88.58 1625.99 88.75 1611.33 52.26"/>
      <rect class="cls-4" x="1564.07" y="309.58" width="64.86" height="55.67"/>
      <rect class="cls-4" x="1564.07" y="101.05" width="25.64" height="162.78"/>
      <rect class="cls-4" x="1564.07" y="276.1" width="64.86" height="21.2"/>
      <rect class="cls-4" x="1603.29" y="101.05" width="25.64" height="162.78"/>
    </g>
    <path class="cls-1" d="M656.63,264.46c0,40.13,9.8,51.79,42,51.79,30.33,0,40.13-11.67,40.13-35.93,0-26.6-11.2-49.46-52.26-65.33-69.99-27.53-91.92-61.59-91.92-116.65s33.6-88.19,100.79-88.19c73.26,0,101.26,30.8,101.26,92.39,0,8.86-.47,18.2-.93,28.93-7-.47-17.27-.47-28.46-.47s-22.4,0-29.86.47c.47-8.87.47-17.73.47-26.6,0-27.53-9.33-40.13-41.53-40.13-28,0-38.26,12.13-38.26,34.06,0,23.8,7,43.86,51.33,62.06,60.19,23.8,89.59,58.33,89.59,115.72s-30.33,93.79-100.32,93.79c-77.46,0-105.92-36.4-105.92-94.72,0-12.6,0-20.53.93-28.93,7,.93,17.73,1.4,29.4,1.4,13.07,0,24.73-.47,33.6-.93v17.27h-.04Z"/>
    <path class="cls-1" d="M1107.95,15.28c-.47,7.09-.47,18.44-.47,28.84,0,9.46,0,21.75.47,29.79-21-.47-129.93-.47-148.59-.47,0,113.95.47,269.04,1.87,296.94-8.86-.95-23.33-.95-33.13-.95s-23.33,0-32.66.95c1.4-27.42,1.4-182.99,1.4-296.94-18.66,0-54.95,0-75.95.47.46-8.04.46-20.33.46-29.79,0-10.4,0-21.28-.46-28.84h287.07-.01Z"/>
    <path class="cls-1" d="M1255.77,15.28c-.93,29.86-1.4,60.19-1.4,104.52,0,35,.47,90.06.47,136.25,0,69.06-30.33,114.32-107.32,114.32s-101.55-45.54-107.79-114.32c-.37-4.08.03.35,0,0-4.03-44.15,0-96.22-.93-126.08h66.73c-1.87,56-1.87,61.69-1.87,125.15,0,40.13,13.53,56.93,45.73,56.93,29.86,0,42-16.8,42-56.93,0-63.46-.93-184.31-1.87-239.84h66.26,0Z"/>
    <path class="cls-1" d="M1402.28,15.28c84.92,0,123.65,30.8,123.65,171.72s-35,178.25-125.05,178.25h-91.92c1.4-48.06,1.4-100.32,1.4-174.51s0-132.99-1.4-175.45h93.32ZM1462.01,188.68c0-103.29-17.73-115.44-58.79-115.44-10.27,0-19.6.47-28.46.93-.93,33.65-.93,78.51-.93,118.24,0,53.28,0,88.8.47,114.5,9.33.93,17.26.93,27.53.93,43.4,0,60.19-14.02,60.19-119.18v.02Z"/>
    <path class="cls-1" d="M1681.32,365.25c.47-9.33.47-17.27.47-25.2,0-10.27,0-24.27-.47-29.86,13.53-21,59.73-109.66,93.79-172.65,12.13-23.33,24.73-47.6,35-64.86l-.47-1.4c-14.46.93-29.4.93-46.66.93-45.73,0-62.99.47-80.26.47.47-8.87.93-21.93.93-28.93,0-8.87,0-19.13-.47-28.47h196.91c0,9.33-.47,17.73-.47,26.6,0,7.93,0,22.4.47,29.4-13.53,21.93-51.8,103.59-87.26,167.05-14.47,27.07-24.27,49.93-34.06,68.13v1.4c13.53-.47,27.06-.93,39.19-.47,39.66,0,62.99-.93,82.13-1.87-.47,11.67-.47,26.6-.47,34.06,0,7.93.47,16.33.93,25.66h-199.25.02Z"/>
  </g>
</svg>