<?xml version="1.0" encoding="UTF-8"?>
<svg id="Calque_2" data-name="Calque 2" xmlns="http://www.w3.org/2000/svg" viewBox="0 0 1236.08 866.59">
  <defs>
    <style>
      .cls-1 {
        fill: #ff5833;
      }

      .cls-1, .cls-2, .cls-3, .cls-4, .cls-5 {
        stroke-width: 0px;
      }

      .cls-2 {
        fill: #fe5833;
      }

      .cls-3 {
        fill: #000;
      }

      .cls-4 {
        fill: #030128;
      }

      .cls-5 {
        fill: #faf4dc;
      }
    </style>
  </defs>
  <g id="Calque_1-2" data-name="Calque 1">
    <g>
      <g>
        <path class="cls-4" d="M203.33,336.12c1.34-62.25,1.79-106.14,2.24-171.08,0-31.35,2.24-68.97,3.14-103.45h-1.34c-5.37,31.8-11.2,65.84-17.02,87.33l-48.37,187.2h-26.42l-48.37-189.89c-5.82-24.18-12.09-56.43-17.02-85.54h-1.34c.9,36.28,2.69,70.31,3.14,103.9,0,65.83.89,109.72,1.79,171.53H0c.9-48.37.9-97.18.9-168.39S.9,44.11.45.22h79.27c8.51,30.9,25.08,98.98,42.99,162.57,3.58,15.23,7.61,36.73,11.2,56.88h1.79c3.58-20.6,8.06-41.2,12.09-56.43C164.81,99.65,182.28,31.13,190.79.22h73c-.9,43.89-.9,94.05-.9,167.5s.45,120.02,1.34,168.39h-60.91Z"/>
        <path class="cls-4" d="M505.59,0c-20.15,52.85-63.15,184.52-77.48,232.88,0,51.95.45,88.23.9,103.45-8.51-.9-21.05-.9-30.9-.9s-22.84,0-31.8.9c.9-15.23,1.34-51.05,1.34-103.45-14.33-50.16-57.77-187.2-77.93-232.88h71.21c4.48,20.15,17.02,80.17,27.32,126.3,4.03,16.57,7.61,34.04,10.3,47.47h3.58c2.24-12.99,5.82-30.01,10.3-46.13,11.2-47.47,25.53-108.38,29.11-127.64h64.04Z"/>
        <g>
          <path class="cls-5" d="M997.2,449.07l-16.75-37.7-5.63-12.68-10.34-23.29c-.36-.81-1.63-.81-1.99,0l-10.36,23.29-5.65,12.68-16.7,37.53-3.28,12.88v215.46s0,52.68,0,52.68c0,2.68,2.4,4.85,5.35,4.85h63.34c2.96,0,5.35-2.17,5.35-4.85v-268.14l-3.35-12.71Z"/>
          <polygon class="cls-1" points="963.41 389.47 953.86 413.18 972.94 413.18 963.41 389.47"/>
          <polygon class="cls-2" points="977.67 424.96 949.11 424.96 935.07 459.82 991.75 459.98 977.67 424.96"/>
          <rect class="cls-2" x="932.31" y="671.93" width="62.25" height="53.43"/>
          <rect class="cls-2" x="932.31" y="471.79" width="24.61" height="156.23"/>
          <rect class="cls-2" x="932.31" y="639.8" width="62.25" height="20.35"/>
          <rect class="cls-2" x="969.95" y="471.79" width="24.61" height="156.23"/>
        </g>
        <path class="cls-4" d="M61.36,628.62c0,38.51,9.4,49.71,40.31,49.71,29.11,0,38.51-11.2,38.51-34.48,0-25.53-10.75-47.47-50.16-62.7C22.84,554.73,1.79,522.03,1.79,469.19s32.25-84.64,96.74-84.64c70.31,0,97.18,29.56,97.18,88.68,0,8.51-.45,17.46-.9,27.77-6.72-.45-16.57-.45-27.32-.45s-21.5,0-28.66.45c.45-8.51.45-17.02.45-25.53,0-26.42-8.96-38.51-39.86-38.51-26.87,0-36.72,11.64-36.72,32.69,0,22.84,6.72,42.1,49.26,59.56,57.77,22.84,85.99,55.98,85.99,111.07s-29.11,90.02-96.29,90.02c-74.34,0-101.66-34.93-101.66-90.92,0-12.09,0-19.71.9-27.77,6.72.9,17.02,1.34,28.21,1.34,12.54,0,23.74-.45,32.25-.9v16.57Z"/>
        <path class="cls-4" d="M494.53,389.47c-.45,6.81-.45,17.7-.45,27.68,0,9.08,0,20.87.45,28.59-20.16-.45-124.7-.45-142.62-.45,0,109.37.45,258.22,1.79,285-8.51-.91-22.39-.91-31.8-.91s-22.39,0-31.35.91c1.34-26.32,1.34-175.63,1.34-285-17.91,0-52.74,0-72.9.45.45-7.72.45-19.51.45-28.59,0-9.99,0-20.42-.45-27.68h275.53Z"/>
        <path class="cls-4" d="M636.41,389.47c-.9,28.66-1.34,57.77-1.34,100.32,0,33.59.45,86.44.45,130.77,0,66.28-29.11,109.73-103.01,109.73s-97.47-43.71-103.45-109.73c-.36-3.92.03.33,0,0-3.86-42.37,0-92.35-.9-121.01h64.04c-1.79,53.74-1.79,59.21-1.79,120.12,0,38.52,12.99,54.64,43.89,54.64,28.66,0,40.31-16.12,40.31-54.64,0-60.91-.9-176.9-1.79-230.2h63.6Z"/>
        <path class="cls-4" d="M777.03,389.47c81.51,0,118.68,29.56,118.68,164.81s-33.59,171.08-120.03,171.08h-88.23c1.34-46.13,1.34-96.29,1.34-167.5s0-127.64-1.34-168.39h89.57ZM834.35,555.89c0-99.13-17.02-110.8-56.43-110.8-9.85,0-18.81.45-27.32.9-.9,32.3-.9,75.36-.9,113.49,0,51.14,0,85.23.45,109.9,8.96.9,16.57.9,26.42.9,41.65,0,57.77-13.46,57.77-114.38Z"/>
        <path class="cls-4" d="M1044.85,725.36c.45-8.96.45-16.57.45-24.18,0-9.85,0-23.29-.45-28.66,12.99-20.15,57.33-105.25,90.02-165.71,11.65-22.39,23.74-45.68,33.59-62.25l-.45-1.34c-13.88.9-28.21.9-44.78.9-43.89,0-60.46.45-77.03.45.45-8.51.9-21.05.9-27.77,0-8.51,0-18.36-.45-27.32h189c0,8.96-.45,17.02-.45,25.53,0,7.61,0,21.5.45,28.21-12.99,21.05-49.71,99.42-83.75,160.33-13.89,25.98-23.29,47.92-32.69,65.39v1.34c12.99-.45,25.98-.9,37.62-.45,38.07,0,60.46-.9,78.83-1.79-.45,11.2-.45,25.53-.45,32.69,0,7.61.45,15.68.9,24.63h-191.24Z"/>
      </g>
      <g>
        <path class="cls-3" d="M25.26,775.92c13.98,0,19.49,6.67,19.49,19.88v4.23c0,9.49-2.69,15.39-10.51,17.83,8.72,2.43,12.06,9.36,12.06,19.24v7.57c0,13.47-6.54,21.03-20.52,21.03H5.13v-89.77h20.13ZM22.83,814.01c7.95,0,12.06-2.56,12.06-11.93v-5.26c0-7.95-2.69-11.8-9.87-11.8h-9.87v28.98h7.69ZM25.78,856.59c7.31,0,10.64-3.85,10.64-12.18v-7.95c0-10.01-3.97-13.34-12.57-13.34h-8.72v33.47h10.65Z"/>
        <path class="cls-3" d="M54.63,797.59c0-13.72,6.8-22.57,20.52-22.57s20.65,8.85,20.65,22.57v46.43c0,13.59-6.8,22.57-20.65,22.57s-20.52-8.98-20.52-22.57v-46.43ZM64.5,844.54c0,8.21,3.46,12.95,10.65,12.95s10.65-4.74,10.65-12.95v-47.45c0-8.08-3.33-12.95-10.65-12.95s-10.65,4.88-10.65,12.95v47.45Z"/>
        <path class="cls-3" d="M104.5,797.59c0-13.72,6.8-22.57,20.52-22.57s20.65,8.85,20.65,22.57v46.43c0,13.59-6.8,22.57-20.65,22.57s-20.52-8.98-20.52-22.57v-46.43ZM114.38,844.54c0,8.21,3.46,12.95,10.65,12.95s10.65-4.74,10.65-12.95v-47.45c0-8.08-3.33-12.95-10.65-12.95s-10.65,4.88-10.65,12.95v47.45Z"/>
        <path class="cls-3" d="M194.01,797.47v2.44h-9.49v-2.95c0-8.08-3.08-12.82-10.26-12.82s-10.26,4.74-10.26,12.7c0,20.13,30.14,22.06,30.14,47.32,0,13.6-6.54,22.44-20.27,22.44s-20.13-8.85-20.13-22.44v-5.13h9.36v5.64c0,8.08,3.33,12.82,10.51,12.82s10.51-4.74,10.51-12.82c0-20.01-30.01-21.93-30.01-47.2,0-13.85,6.41-22.44,19.88-22.44s20,8.85,20,22.44Z"/>
        <path class="cls-3" d="M215.94,865.7v-80.67h-16.55v-9.11h43.09v9.11h-16.55v80.67h-10Z"/>
        <path class="cls-3" d="M281.33,815.68v8.98h-21.93v31.93h26.93v9.11h-36.94v-89.77h36.94v9.11h-26.93v30.65h21.93Z"/>
        <path class="cls-3" d="M334.93,865.7h-40.79v-8.98l30.78-71.69h-29.37v-9.11h39.63v8.98l-30.91,71.69h30.66v9.11Z"/>
        <path class="cls-3" d="M371.6,775.92l14.62,78.1,14.49-78.1h9.23l-16.8,89.77h-14.75l-16.93-89.77h10.13Z"/>
        <path class="cls-3" d="M416.73,797.59c0-13.72,6.8-22.57,20.52-22.57s20.65,8.85,20.65,22.57v46.43c0,13.59-6.8,22.57-20.65,22.57s-20.52-8.98-20.52-22.57v-46.43ZM426.6,844.54c0,8.21,3.46,12.95,10.65,12.95s10.65-4.74,10.65-12.95v-47.45c0-8.08-3.33-12.95-10.65-12.95s-10.65,4.88-10.65,12.95v47.45Z"/>
        <path class="cls-3" d="M480.46,865.7v-80.67h-16.55v-9.11h43.09v9.11h-16.54v80.67h-10.01Z"/>
        <path class="cls-3" d="M533.93,775.92c14.1,0,20,7.18,20,20.52v7.31c0,9.88-3.46,16.03-11.16,18.47,8.21,2.44,11.29,9.11,11.29,18.73v13.98c0,3.98.12,7.69,1.79,10.77h-10.13c-1.16-2.56-1.67-4.87-1.67-10.9v-14.11c0-10.13-4.74-13.34-13.08-13.34h-7.05v38.35h-10.01v-89.77h20.01ZM531.37,818.24c7.95,0,12.7-2.56,12.7-12.31v-8.59c0-8.08-2.95-12.31-10.39-12.31h-9.74v33.21h7.44Z"/>
        <path class="cls-3" d="M596.38,815.68v8.98h-21.93v31.93h26.93v9.11h-36.94v-89.77h36.94v9.11h-26.93v30.65h21.93Z"/>
        <path class="cls-3" d="M640.61,847.61l-3.46,18.08h-9.24l17.19-89.77h14.49l17.19,89.77h-10.01l-3.46-18.08h-22.7ZM641.9,839.02h20l-10.13-51.81-9.87,51.81Z"/>
        <path class="cls-3" d="M704.22,775.92c14.1,0,20.13,8.34,20.13,21.93v10.77c0,14.24-6.67,21.67-20.91,21.67h-8.85v35.4h-10.01v-89.77h19.62ZM703.45,821.32c7.44,0,11.03-3.46,11.03-12.05v-11.93c0-8.21-2.95-12.31-10.26-12.31h-9.62v36.29h8.85Z"/>
        <path class="cls-3" d="M752.17,775.92c14.1,0,20.13,8.34,20.13,21.93v10.77c0,14.24-6.67,21.67-20.91,21.67h-8.85v35.4h-10.01v-89.77h19.62ZM751.4,821.32c7.44,0,11.03-3.46,11.03-12.05v-11.93c0-8.21-2.95-12.31-10.26-12.31h-9.62v36.29h8.85Z"/>
        <path class="cls-3" d="M800.51,775.92c14.11,0,20.01,7.18,20.01,20.52v7.31c0,9.88-3.46,16.03-11.16,18.47,8.21,2.44,11.29,9.11,11.29,18.73v13.98c0,3.98.12,7.69,1.79,10.77h-10.13c-1.16-2.56-1.67-4.87-1.67-10.9v-14.11c0-10.13-4.74-13.34-13.08-13.34h-7.05v38.35h-10.01v-89.77h20ZM797.95,818.24c7.95,0,12.7-2.56,12.7-12.31v-8.59c0-8.08-2.95-12.31-10.39-12.31h-9.74v33.21h7.44Z"/>
        <path class="cls-3" d="M862.96,815.68v8.98h-21.93v31.93h26.93v9.11h-36.94v-89.77h36.94v9.11h-26.93v30.65h21.93Z"/>
        <path class="cls-3" d="M886.03,865.7h-8.98v-89.77h12.7l20.78,64.89v-64.89h8.85v89.77h-10.39l-22.96-72.59v72.59Z"/>
        <path class="cls-3" d="M942.71,865.7v-80.67h-16.55v-9.11h43.09v9.11h-16.54v80.67h-10.01Z"/>
        <path class="cls-3" d="M986.18,775.92v89.77h-10.01v-89.77h10.01Z"/>
        <path class="cls-3" d="M1035.29,797.47v2.44h-9.49v-2.95c0-8.08-3.08-12.82-10.26-12.82s-10.26,4.74-10.26,12.7c0,20.13,30.14,22.06,30.14,47.32,0,13.6-6.54,22.44-20.27,22.44s-20.13-8.85-20.13-22.44v-5.13h9.36v5.64c0,8.08,3.33,12.82,10.51,12.82s10.51-4.74,10.51-12.82c0-20.01-30.01-21.93-30.01-47.2,0-13.85,6.41-22.44,19.88-22.44s20,8.85,20,22.44Z"/>
        <path class="cls-3" d="M1082.99,797.47v2.44h-9.49v-2.95c0-8.08-3.08-12.82-10.26-12.82s-10.26,4.74-10.26,12.7c0,20.13,30.14,22.06,30.14,47.32,0,13.6-6.54,22.44-20.27,22.44s-20.13-8.85-20.13-22.44v-5.13h9.36v5.64c0,8.08,3.33,12.82,10.51,12.82s10.51-4.74,10.51-12.82c0-20.01-30.01-21.93-30.01-47.2,0-13.85,6.41-22.44,19.88-22.44s20,8.85,20,22.44Z"/>
        <path class="cls-3" d="M1101.97,847.61l-3.46,18.08h-9.24l17.19-89.77h14.49l17.19,89.77h-10.01l-3.46-18.08h-22.7ZM1103.25,839.02h20l-10.13-51.81-9.87,51.81Z"/>
        <path class="cls-3" d="M1185.57,797.59v7.69h-9.49v-8.21c0-8.08-3.21-12.95-10.51-12.95s-10.52,4.88-10.52,12.95v47.45c0,8.08,3.34,12.95,10.52,12.95s10.51-4.87,10.51-12.95v-17.95h-9.23v-8.98h18.72v26.42c0,13.59-6.41,22.57-20.27,22.57s-20.13-8.98-20.13-22.57v-46.43c0-13.59,6.41-22.57,20.13-22.57s20.27,8.98,20.27,22.57Z"/>
        <path class="cls-3" d="M1226.99,815.68v8.98h-21.93v31.93h26.93v9.11h-36.94v-89.77h36.94v9.11h-26.93v30.65h21.93Z"/>
      </g>
    </g>
  </g>
</svg>